<?xml version="1.0" encoding="utf-8"?>
<!-- Generator: Adobe Illustrator 19.2.0, SVG Export Plug-In . SVG Version: 6.00 Build 0)  -->
<svg version="1.1" id="Layer_1" xmlns="http://www.w3.org/2000/svg" xmlns:xlink="http://www.w3.org/1999/xlink" x="0px" y="0px"
	 viewBox="0 0 330 100" style="enable-background:new 0 0 330 100;" xml:space="preserve">
<style type="text/css">
	.st0{clip-path:url(#SVGID_2_);fill:#373432;}
	.st1{fill:#373432;}
	.st2{clip-path:url(#SVGID_4_);fill:#373432;}
	.st3{clip-path:url(#SVGID_6_);fill:#373432;}
	.st4{clip-path:url(#SVGID_8_);fill:#373432;}
	.st5{fill:#D12127;}
	.st6{fill:#FFFFFF;}
	.st7{clip-path:url(#SVGID_10_);fill:#FFFFFF;}
	.st8{clip-path:url(#SVGID_12_);fill:#FFFFFF;}
	.st9{clip-path:url(#SVGID_14_);fill:#FFFFFF;}
	.st10{clip-path:url(#SVGID_16_);fill:#FFFFFF;}
	.st11{clip-path:url(#SVGID_18_);fill:#373432;}
</style>
<g>
	<path class="st1" d="M130.6,58c-10.7,0-17.6-5.3-17.6-13v-0.3c0-7.6,7-13,17.6-13c5.6,0,11,1.8,13.9,4.2l-4.8,6
		c-2-1.3-4.6-2.2-7.3-2.2c-3.7,0-6.5,2-6.5,5V45c0,3,2.8,5,6.5,5c2.8,0,5.7-1.1,7.3-2.2l4.4,6C141,56.4,136.2,58,130.6,58"/>
</g>
<polygon class="st1" points="165.4,57.1 165.4,48.6 158.9,48.6 158.9,57.1 146.2,57.1 146.2,32.7 158.9,32.7 158.9,41.8 165.4,41.8 
	165.4,32.7 178.1,32.7 178.1,57.1 "/>
<g>
	<defs>
		<rect id="SVGID_17_" x="113" y="-87.6" width="201.6" height="170.4"/>
	</defs>
	<clipPath id="SVGID_2_">
		<use xlink:href="#SVGID_17_"  style="overflow:visible;"/>
	</clipPath>
	<path class="st0" d="M200.7,44.5c0-2.7-0.6-5.2-3.5-5.2c-3,0-3.6,2.5-3.6,5.2v0.6c0,2.7,0.6,5.2,3.6,5.2c3,0,3.5-2.5,3.5-5.2V44.5z
		 M197.2,58c-10.5,0-16.6-5.9-16.6-12.9v-0.4c0-7.1,6.1-12.8,16.6-12.8c10.4,0,16.5,5.7,16.5,12.8v0.4C213.7,52.1,207.6,58,197.2,58
		"/>
	<path class="st0" d="M229.6,58c-5.9,0-12.1-1.5-15.6-3.6l3.4-5.9c4.7,1.9,9.2,2.7,12.3,2.7c2.1,0,3.4-0.4,3.4-1.1
		c0-2.3-18.1-0.6-18.1-9.9c0-4.6,5.1-8.5,15.1-8.5c6.9,0,12.4,1.7,15,3.1l-3.7,5.6c-4.1-1.2-7.9-1.9-10.5-1.9c-1.8,0-2.9,0.3-2.9,1
		c0,2.6,17.3,0.4,17.3,9.4C245.5,54.4,240.6,58,229.6,58"/>
	<path class="st0" d="M263.5,58c-11.5,0-16-5-16-11.4V32.7h12.7v13c0,3,0.9,4.4,4,4.4c3,0,3.9-1.3,3.9-4.4v-13h11.3v13.9
		C279.3,53,275,58,263.5,58"/>
</g>
<polygon class="st1" points="303.1,32.7 303.1,42.1 302.3,41.2 293.1,32.7 282.8,32.7 282.8,57.1 294.2,57.1 294.2,47.6 295.1,48.6 
	303.7,57.1 314.6,57.1 314.6,32.7 "/>
<g>
	<path class="st1" d="M132.7,82.1l-5.4-5.8l-2.6,2.3v3.6h-4.9V66.7h4.9v7.2l7.7-7.2h5.7l-7.5,6.6c1.1,0.9,7.8,8.8,7.8,8.8H132.7z"/>
	<path class="st1" d="M153,74.2c0-2.4-1.7-4.6-4.7-4.6c-3,0-4.7,2.2-4.7,4.6v0.4c0,2.4,1.6,4.6,4.7,4.6c3,0,4.7-2.2,4.7-4.6V74.2z
		 M148.3,82.6c-5.8,0-9.6-3.8-9.6-8.1v-0.4c0-4.3,3.8-8.1,9.6-8.1c5.8,0,9.6,3.7,9.6,8.1v0.4C158,78.9,154.1,82.6,148.3,82.6"/>
	<path class="st1" d="M173.2,71.9c0-1.1-0.8-1.8-2.9-1.8h-4.2v3.8h4.3c2,0,2.8-0.7,2.8-1.8V71.9z M174.6,82.1c-0.9,0-1.3-1-1.4-2.4
		l0-1.6c0-1.2-0.5-1.9-2.6-1.9h-4.4v5.9h-4.9V66.7h10.3c4.4,0,6.6,1.9,6.6,4.3v0.1c0,1.6-1.1,3-3.8,3.5c2.8,0.3,3.7,1.7,3.7,3.5
		l0,1.3c0,1,0.2,1.8,0.9,2.5v0.1H174.6z"/>
</g>
<polygon class="st1" points="182,66.7 182,82.1 197.7,82.1 197.7,78.4 186.9,78.4 186.9,75.3 194.6,75.3 194.6,73.2 186.9,73.2 
	186.9,70.2 197.7,70.2 197.7,66.7 "/>
<path class="st1" d="M209.7,70.7l2.5,5.3h-5.1L209.7,70.7z M207.4,66.7l-7.7,15.4h4.5l1.6-3.2h7.7l1.5,3.2h5.3l-7.8-15.4H207.4z"/>
<polygon class="st1" points="235.9,66.7 235.9,76.1 234.9,75 226.8,66.7 222.5,66.7 222.5,82.1 227.2,82.1 227.2,72.7 228.2,73.8 
	236.3,82.1 240.5,82.1 240.5,66.7 "/>
<g>
	<path class="st1" d="M264.3,77c0-1-0.7-1.6-2.5-1.6h-4.6v3.3h4.7C263.6,78.7,264.3,78.1,264.3,77L264.3,77z M264.3,71.7
		c0-1-0.7-1.6-2.4-1.6h-4.7v3.3h4.6C263.6,73.4,264.3,72.7,264.3,71.7L264.3,71.7z M263,82.1h-10.8V66.7h10.6c4,0,6.2,1.7,6.2,4.1
		V71c0,1.5-1.2,3-3.4,3.4c2.5,0.4,3.7,1.9,3.7,3.3v0.2C269.3,80.4,267,82.1,263,82.1"/>
	<path class="st1" d="M284.8,77c0-1-0.7-1.6-2.5-1.6h-4.6v3.3h4.7C284.2,78.7,284.8,78.1,284.8,77L284.8,77z M284.8,71.7
		c0-1-0.7-1.6-2.4-1.6h-4.7v3.3h4.6C284.1,73.4,284.8,72.7,284.8,71.7L284.8,71.7z M283.6,82.1h-10.8V66.7h10.6c4,0,6.2,1.7,6.2,4.1
		V71c0,1.5-1.2,3-3.4,3.4c2.5,0.4,3.7,1.9,3.7,3.3v0.2C289.8,80.4,287.6,82.1,283.6,82.1"/>
	<path class="st1" d="M306.5,74.6v-0.4c0-2.4-1.7-4.6-4.7-4.6c-3,0-4.7,2.2-4.7,4.6v0.4c0,2.4,1.6,4.6,4.7,4.6c0.8,0,1.5-0.1,2-0.4
		l-1.8-1.5L305,75l1.3,1.1C306.5,75.6,306.5,75.1,306.5,74.6 M312.5,79.8v2.6c-0.6,0.3-1,0.4-2,0.4c-1.3,0-2.5-0.5-3.3-1.3
		c-1.5,0.8-3.2,1.2-5.2,1.2c-5.8,0-9.6-3.8-9.6-8.1v-0.4c0-4.3,3.8-8.1,9.6-8.1c5.8,0,9.6,3.7,9.6,8.1v0.4c0,1.6-0.5,3.1-1.5,4.3
		C310.7,79.5,311.3,79.8,312.5,79.8"/>
</g>
<path class="st1" d="M76.4,42.7L76.4,42.7l-1,0.7l-0.1,0c-0.2,0-0.5-0.1-0.5,0l0,0.2l-0.4-0.1l-0.1,0c-0.2,0-0.3,0-0.3,0
	c-0.2,0.1-0.3,0.6-0.4,1.1c0,0.2-0.1,0.5-0.2,0.8c-0.1,0.2-0.1,0.6-0.2,1.1c-0.1,0.5-0.2,0.9-0.2,1.1L72.9,49l-0.1,0.1l-0.1,1.2l0,0
	c-0.1,0.1-0.1,0.2-0.2,0.4l-0.1,1l0,0c-0.1,0.1-0.2,0.4-0.4,1c0,0.2-0.1,0.5-0.1,0.8c0,0.4,0,0.7-0.1,0.9l-0.1,0.6
	c-0.1,0.3-0.1,0.5-0.2,0.6c-0.1,0.4-0.1,0.7-0.1,0.8l0,0.1l-0.1,0.1c0,0.5,0.1,1.3,0.1,2.3l0,0.1l-0.2,0.2l0,0.3l0,0.1
	c-0.2,0.3-0.6,0.4-0.9,0.6c-0.1,0.1-0.3,0.1-0.4,0.2l-0.1,0.3l-0.2-0.2c-0.2-0.2-0.4-0.3-0.7-0.4l-0.1,0l0-0.1
	c-0.1-0.2-0.2-0.5-0.3-0.9c0-0.1-0.1-0.4,0-1.8c0.1-1.4,0.1-1.7,0.2-1.8l0.1-0.4l0.2,0.4l0,0c0.2-1.1,0.4-2.4,0.7-3.6
	c-0.4,0.2-1,0.2-1.6,0.2c-0.9,0-1.1,0-1.1,0l-0.1,0L66.6,52l-0.1-0.1l0-0.1c0-0.1-0.1-0.2-0.2-0.4c-0.3-0.3-0.3-0.3-0.3-0.4
	l-0.5-0.8l-0.2,0.2c0,0.3,0,0.5,0,0.7c0,0.1-0.1,0.2-0.1,0.4C65,51.7,65,51.8,65,51.9c-0.1,0.3-0.1,0.7-0.1,1.2c0,0.7,0.1,0.9,0.2,1
	l0.2,0.2L65,54.4c0,0-0.1,0.1-0.2,0.4c-0.1,0.3-0.3,0.5-0.6,0.6l-0.1,0l-0.6-0.3l0-0.1c-0.1-0.1-0.3-0.3-0.5-0.5
	c-0.3-0.2-0.6-0.5-0.7-0.7c-0.2-0.4-0.2-0.8-0.1-1.2c0.6-2.7,1.3-5.2,2.1-7.4h0c-0.5-0.1-0.8,0-1.1,0.2l-1.3,2.7
	c0,0.2-0.1,0.3-0.2,0.6l0,0l0,0c-0.1,0.1-0.2,0.3-0.4,0.5l-0.1,0.2l-0.3-0.2l0,0L60.7,49l-0.3,0.1L60,49l0-0.1
	c-0.1-0.4-0.1-0.5-0.1-0.6c-0.1-0.2-0.2-0.4-0.3-0.4l-0.1,0l0-0.1l0-0.2l0-0.1l0.1,0c0.1,0,0.1,0,0.2,0l0.1-0.3l-0.3-0.3l0.5-0.1
	l0,0l0,0c0.2-0.6,0.3-1.6,0.5-2.7c-0.1-0.1-0.4-0.2-0.9-0.3c-0.1,0-0.2-0.1-0.4-0.1c-0.2-0.1-0.3-0.1-0.4-0.1c-0.5-0.1-0.7,0-0.7,0
	l-0.1,0.1L58,43.2l0,0l-0.3,0.1l-0.3,0l-1.2-0.6l0-0.1l-0.4-1.1l0-0.1l0.2-0.1c0.4-0.2,1-0.1,1.5,0c0.1,0,0.3,0.1,0.4,0.1
	c0.1,0,0.3,0.1,0.5,0.1c0.2,0,0.3,0.1,0.5,0.1c-0.1-0.2-0.5-0.4-0.9-0.5l-0.1,0l0-0.1c-0.1-0.1-0.1-0.2-0.1-0.3l0,0l0,0
	c0-0.1,0.1-0.2,0.3-0.3l0.2-0.1c0-0.1,0-0.3,0-0.8c0,0,0-0.2,0-0.1l0,0.1l0-0.1c0.1-0.2,0.2-0.6,0.2-0.9l-0.1,0l-0.1-0.2l-0.2,0
	L58,38.3c-0.3-0.3-1.4-0.6-1.3-0.6l-0.5-0.4c-0.2,0-0.1,0-0.2,0l-0.1,0c-0.1,0-0.2,0-0.4,0c-0.2-0.1-0.4-0.2-0.6-0.5
	c-0.1-0.2-0.2-0.3-0.4-0.3l-0.2-0.1l-0.1,0l0-0.1c0,0-0.1-0.2-0.5-1c-0.2-0.4-0.3-0.9-0.2-1.3c0-0.2,0.1-0.4,0.3-0.6
	c0.3-0.3,0.5-0.3,0.6-0.3c0.1,0,0.2,0.1,0.4,0.2c0.1,0.1,0.2,0.1,0.3,0.2c0,0,0.1,0,0.3,0c0.2,0,0.3,0,0.5,0.1
	c0.7,0.2,1.2,0.4,1.6,0.6c0.1,0,0.3,0,0.5,0l0.2,0.1c0.1,0,0.2,0,0.3,0c0.1,0,0.2,0.1,0.4,0.2c0.2,0.1,0.3,0.1,0.3,0.1l0,0
	c0.1-0.1,0.1-0.3,0.1-0.5l0,0l0.4-0.8c0,0,0-0.1-0.1-0.3L59.6,33l0-0.2c0.1-0.5,0.6-0.7,1.5-0.6l0,0l0,0c0.9,0.6,1.4,1.1,1.5,1.6v0
	l0,0.2l0,0c-0.4,0.4-0.6,0.8-0.7,1.1l0.1,0l0.1,0l0.1,0c0.1,0,0.2,0,0.4,0l0.1,0l0.2,0.1l0.1-0.1l0.1,0.1c0.9,0.5,1.5,1,1.8,1.4
	l0.1,0.1l0,0.2l0.1,0.4l-0.3,0.1c0,0.1,0,0.2,0,0.4l0,0.3l-0.2,0l-0.2,0c-0.1,0-0.2,0-0.3-0.1L63.7,38c-0.3-0.1-0.4,0-0.6,0.1
	c-0.4,0.3-0.8,0.6-1.3,0.7c-0.1,0-0.2,0-0.3,0c-0.1,0.3-0.4,0-0.7,0.7l-0.1,0.3c0,0.1,0,0.2-0.1,0.4c0,0.2,0,0.5-0.2,0.8
	c0.1,0.2,0.1,0.4,0.1,0.5l0,0.1l-0.6,0.4c0.4,0,0.9,0.1,1.6,0.1l0.1,0l0,0l0.2-0.1l0.1,0.1c0.1,0,0.4,0,0.4,0l0.1,0.1l0,0l0.2,0
	l0.1,0c0.4,0.2,0.8,0.5,1.3,1c0.3,0.3,0.6,0.6,0.7,0.9c0.3-0.8,0.6-1.6,1-2.3l0.1-0.2l0.2,0l0,0c0.3,0.1,1.2,0.5,1.6,1l0,0l0.1,0.2
	l0.1,0.1l0.1,0.1l0,0.1c0,0.2,0,0.3,0,0.4l0.1,0.1l-0.2,0.3l0,0.5l-0.1,0.2c0.4,0,0.9,0,1.5-0.1l0.1,0l0.1,0.1l0.1,0
	c0.2,0,0.4,0.1,0.5,0.2l0.1,0l0.1,0c0.2,0.1,0.4,0.3,0.7,0.6l0.1-0.2c0.1-0.3,0.1-0.7,0.2-1.2c0.1-0.5,0.1-0.8,0.2-1.1
	c-0.2-0.2-0.5-0.4-0.8-0.8c-0.2,0-0.4-0.1-0.7-0.3l-0.2,0l-0.1-0.1c-0.6-0.7-0.7-0.9-0.7-1c0-0.1-0.1-0.3-0.1-0.5
	c-0.1-0.2-0.2-0.3-0.3-0.5c-0.1-0.2-0.2-0.5-0.3-0.8l0,0l0,0c0-0.2,0.1-0.5,0.1-0.9l-0.1-0.1l-0.1-0.1l0.1-0.1
	c0.1-0.2,0.3-0.4,0.6-0.5c0.2-0.1,0.4-0.1,0.6-0.1l0.1,0l0.2,0.1l0.1-0.1l0.1,0l0,0c0,0,0.1,0,0.3,0l0.1,0l0.1,0
	c0.3,0.2,0.4,0.2,0.5,0.2l0.1,0l0.1,0.1l0,0.1l0.1,0l0,0c0.1,0,0.2,0.3,0.3,0.4c0.1,0.1,0.2,0.1,0.3,0.1c0.1,0,0.4,0.3,1.2,0.2
	l0.1,0l0.1,0c0.2,0.1,0.3,0.2,0.5,0.2c0.1,0.1,0.2,0.2,0.3,0.3l0.1,0c0.1,0,0.3,0.1,0.8,0.6c0.4,0.4,0.8,0.5,1,0.9
	c0.1,0.1,0.1,0.2,0.3,0.4l0,0C76.5,41.2,76.6,41.8,76.4,42.7 M74.2,64.2c-0.3,0.9-0.9,1.5-1.7,1.5l-0.1,0l-0.1-0.1
	c-1.6-1.4-2.4-2.8-2.2-3.9l0-0.3l0.5-0.3l0.5,0c0.5,0,1,0.2,1.5,0.6c0.8,0.6,0.9,0.7,1,0.8c0.1,0.1,0.2,0.3,0.5,1
	c0,0.1,0.1,0.3,0.2,0.5L74.2,64.2L74.2,64.2z M63.3,61.4l0.1-0.2l0,0l0-0.1l0,0c0.2-0.5,0.5-0.9,1-1.3l0.1-0.1l0.1,0
	c0.6,0,0.8,0,0.9,0.1c0.9,0.2,1.3,0.7,1.8,1.6l0,0l0,0c0.1,0.2,0.2,0.5,0.3,1c0.2,0.3,0.4,0.7,0.7,1.3c0.1,0,0.3-0.1,0.5-0.1l0.1,0
	l0.1,0c0.3,0.1,0.5,0.2,0.6,0.4l0,0l0,0.4l-0.1,0.1c-0.1,0-0.2,0.1-0.3,0.2l0,0.2l-0.1,0.1c0,0-0.2,0.1-0.3,0.9
	c-0.1,0.3-0.3,0.6-0.8,0.7c-0.7,0.2-0.8,0.3-0.8,0.3l-0.1,0.1l-0.2-0.1c-0.1,0-0.1,0-0.6-0.1c-0.7-0.1-1.2-0.4-1.7-0.8l0,0l0,0
	c-0.1-0.2-0.2-0.4-0.4-0.7c-0.5-0.7-0.8-1.2-0.9-1.4c-0.2-0.4-0.2-1-0.1-1.7c0-0.4,0.1-0.6,0.1-0.7L63.3,61.4z M72.5,69.1l-0.7,0.5
	l0,0c-0.4,0.1-0.9,0.2-1.6,0.3l0,0l0,0c-0.3-0.1-0.7-0.1-1.3-0.1c0,0.1,0,0.3,0,0.5c0.2,0.1,0.3,0.2,0.4,0.3
	c0.2,0.1,0.4,0.4,0.4,0.6l0,0.2l-0.2,0.1c-0.2,0.1-0.5,0.2-0.8,0.4l0.7,0.3c0.4,0.2,0.7,0.4,0.9,0.6l0.1,0.1l-0.1,0.1
	c-0.2,0.3-0.4,0.4-0.5,0.5l0,0l0,0c-0.2,0.1-0.4,0.2-0.7,0.3c-0.1,0.1-0.3,0.2-0.5,0.3l-0.1,0l0,0c-0.1,0.1-0.2,0.2-0.4,0.2
	c-0.1,0.1-0.2,0.2-0.2,0.3c-0.1,0.2-0.1,0.3-0.2,0.4l0,0l0,0.1l0,0.1c0.1,0,0.2-0.1,0.4-0.1l0,0l0,0c0.3,0,0.8,0.1,1.4,0.1l0.1,0
	l0,0l0.6-0.3l-0.2,0.4c0.1,0,0.2,0.1,0.5,0.2c0.8,0.3,1.3,0.8,1.4,1.4l0,0.2l-0.2,0.1c-0.6,0.2-1.4,0.4-2.3,0.6l0,0l0,0
	c-0.6-0.1-1.3-0.1-1.9-0.2c-0.5,0-0.6,0-0.8,0.2l-0.2,0.2l0,0.1l0,0.2l0.5,0.3l-0.3,0.1l0,0.1l0.1-0.1l-0.2,0.4l0,0.1l0,0
	c-0.1,0.1-0.2,0.2-0.3,0.3c-0.1,0.1-0.3,0.3-0.3,0.4c0,0,0,0.1,0,0.2c0,0.2,0,0.3,0,0.4l-0.1,0.2l-0.1,0c0.1,0.2,0,0.3,0,0.5
	c-0.1,0.4-0.1,0.4-0.1,0.5l0,0.2l-0.1,0l0,0l0,0c0,0.1,0,0.2,0,0.3c0.2,0.3,0.2,0.7,0,1.3c0,0.1-0.1,0.2-0.3,0.5
	c-0.2,0.3-0.3,0.4-0.3,0.4l-0.1,0.1L63,84.9l-0.1-0.1c-0.2-0.2-0.3-0.4-0.5-0.6c-0.5-0.6-0.9-1.1-0.8-1.6c0-0.1,0.1-0.3,0.3-0.6
	c0.1-0.2,0.2-0.4,0.3-0.5c0.3-0.8,0.7-2.1,1.3-3.7c-0.7,0-2.1-0.1-2.4-0.1c-0.3,0-0.4,0-0.5,0.1c-0.1,0.1-0.3,0.1-0.5,0.2l-0.1,0
	l-0.1,0c-0.1,0-0.2-0.1-0.3-0.1l-0.1,0l-0.1-0.2l0.1-0.3c-0.2-0.2-0.4-0.4-0.4-0.6l0,0l0.2-0.7c0-0.2,0.1-0.5,0.1-0.9l0-0.1l0-0.1
	c0.2-0.2,0.4-0.3,0.8-0.3c0.3,0,0.4-0.1,0.4-0.1l0.1-0.1l0.9,0.4l0.3,0.2c0,0.1,0,0.2,0,0.2c0.2,0,1.4,0.1,1.9,0.2
	c0.4,0.1,0.5,0.1,0.8,0c0-0.1,0.1-0.3,0.1-0.5c0.1-0.2,0.1-0.4,0.2-0.6l0-0.1c-0.1,0-0.2,0-0.3,0c-0.2,0-0.3,0.1-0.3,0.1l-0.1,0.2
	l-0.2,0c-0.5-0.1-1-0.4-1.4-0.9l-0.9-1.3l0.2-0.7l0.1,0c0.2-0.1,0.6-0.2,2.3,0c0.1,0,0.2,0,0.4,0c0.2,0,0.4-0.1,0.8-0.1l0-0.1
	c0-0.1,0-0.2-0.1-0.5c-0.1-0.1-0.1-0.3-0.1-0.4l0,0c-0.2,0.1-0.4,0.2-1,0.2l-0.1,0l-0.1,0c-0.2-0.1-0.4-0.2-0.7-0.4l0,0l0,0
	c-0.1-0.1-0.3-0.3-0.5-0.4l-0.1,0l0-0.1c0,0-0.1-0.3-0.8-1.3c-0.4-0.7-0.6-1.1-0.5-1.5c0-0.1,0.1-0.2,0.4-0.7l0.1-0.1l0.2,0
	c0.3,0,0.6,0.1,0.8,0.1c0.5,0.1,1.1,0.4,1.9,0.9c0.3,0.1,0.8,0.3,1.3,0.5c0.4,0,1.3,0,2.6,0c1.1,0,2,0,2.7,0.2
	c0.6,0.1,1.2,0.4,1.5,0.7l0.1,0.1L72.5,69.1z M41.5,65.4c0,0.3-0.3,2-0.7,2.1c-0.4,0.1-2.4,0.2-2.8-0.2c-0.4-0.4-2.7-3.7-2.7-4.8
	c0-1.1,0.2-2.2,0.4-2.3c0.3-0.1,1.6,0.6,2.4,1.2c0.8,0.5,1.7,1.7,1.7,1.7C40.3,63.7,41.5,65.1,41.5,65.4 M59.3,79.9
	c-0.5,0.3-6.2,5.5-6.7,6c-0.6,0.5-0.8,0.4-1.3,0.2C50.8,85.8,30.8,73.7,30,73.3c-0.7-0.4-0.9-0.6-1.4-1.3
	c-0.5-0.7-6.8-11.8-6.9-12.2c-0.1-0.4-0.6-0.6,0.1-1.3c0.7-0.7,9.7-9.2,11.1-10.5c0,0,4.7-4.3,4.8-4.5c0.1-0.2,0.4-0.6,0.5-0.8
	c0.1-0.2,1.4-6.1,1.6-7.1c0.2-1.1,0.5-1.1,1.1-1.1c0.6,0,5.9-1.3,6.2-1.4c0.3-0.1-0.2,5.2-0.3,5.4c-0.1,0.2-1.2,1.7-1.4,2.7
	c-0.2,1-0.8,3.7-1.1,4.5c-0.3,0.8-1.8,3.2-2.6,4.2c-0.8,1-3.7,5.3-3.8,5.5c-0.1,0.2-1,0.5-1.5,0.7c-0.4,0.2-1.4,1.1-2,1.5
	c-0.6,0.4-0.9,0.8-1.9,1.9c-1,1.1-1.3,2.1-1.4,3.4c-0.1,1.3,0.2,3.4,0.7,3.9c0.5,0.5,3,2.3,3.5,2.7c0.4,0.5,11.2,9.1,11.4,9.2
	c0.2,0.1,0.3,0.1,0.6,0.1c0,0,0.3,0,0.6,0c-0.6-0.7-1.3-1.8-1.9-3.2c-0.2-0.5-0.4-1.1-0.4-1.8l0,0l0.2-0.4c0-0.1,0-0.2,0-0.4l0-0.1
	l0.1-0.1l0.1-0.1l0.1,0l0.1,0l0.1,0c0.1,0,0.2,0.1,0.7,0.4c0.4,0.3,0.6,0.5,0.7,0.6l0,0l0,0c0,0.1,0.1,0.2,0.1,0.4
	c0.2,0.2,0.5,0.6,1.1,1.9c0.6,1.3,0.9,1.5,1,1.6l0,0l0.4-0.3l0.1,0.1c0.2,0.2,0.1,0.5,0,0.6l0,0.1l-0.1,0l-0.1,0.1
	c-0.1,0.3-0.1,0.5-0.1,0.6l0.1,0l0,0.1c2.9,0.1,7.2,0.4,8.1,0.4C59.6,79.4,59.8,79.6,59.3,79.9 M28.2,21.1c2.3-0.3,3.8,0.3,4.8,0.7
	c1,0.5,7.1,2.5,8.7,3c1.7,0.5,3.3,1.2,5.6,1.4c2.3,0.2,1.7,0.5,1.4,1c-0.3,0.5-1.8,2.5-2.7,2.9c-0.9,0.4-3.6,1.7-6.8,2.3
	c-3.2,0.5-6.1-1.6-7.6-2.7c-1.5-1.1-5.6-5.4-6-6.7C25.1,21.7,25.8,21.3,28.2,21.1 M50.5,75.3l0.3-0.2l0.1,0l0.2,0.1l0.1,0l0.1,0
	c0.1,0,0.2,0,0.3,0c0.3,0.1,0.6,0.2,0.7,0.4c0.4,0.4,0.8,0.9,0.8,1l0,0l0,0c0,0.1,0,0.2,0,0.3c0,0.1,0,0.2,0,0.3l0,0l0,0l0,0.3
	c-0.1,0.3-0.5,0.5-0.9,0.7l-0.2,0.1l-0.2,0c-0.4-0.1-0.8-0.5-1.2-1c-0.3-0.6-0.4-1.1-0.2-1.6L50.5,75.3z M56.3,77.4l-0.1,0.1
	c-0.1,0.2-0.5,0.3-0.9,0.5C55.2,78,55.1,78,55,78l-0.1,0L54.9,78c-0.3-0.2-0.6-0.4-0.9-0.6c-0.4-0.3-0.6-0.7-0.6-1.1
	c0-0.1,0-0.4,0-0.7l0-0.2l0.6-0.1l0.2,0l0.2,0.1c0.4,0.1,1,0.3,1.2,0.6c0.2,0.2,0.2,0.5,0.3,0.7C56.1,76.9,56.1,77.1,56.3,77.4
	L56.3,77.4z M58.3,76.9c0,0.2,0,0.3,0,0.4l0,0.1l-0.1,0c-0.1,0-0.3,0.1-0.5,0.2c-0.2,0.1-0.5,0.2-0.6,0.3l-0.1,0l-0.1,0
	c-0.1-0.1-0.2-0.2-0.3-0.3c-0.1-0.1-0.1-0.2-0.2-0.3l-0.1,0l0-0.1c0-0.3,0-0.6,0-1.1l0-0.1l0-0.1c0.1-0.2,0.3-0.2,0.5-0.2l0.2,0.1
	l0.2,0l0,0.2l0.1-0.1l0.1,0.1c0.2,0.1,0.5,0.3,0.8,0.5l0.1,0.1l0,0.1C58.2,76.7,58.2,76.8,58.3,76.9 M56.8,65l0.6,0.1l0.3,0.1
	c0.4-0.1,0.9-0.2,1.4,0c0.2,0.1,0.5,0.2,0.9,0.6c0.1,0.1,0.2,0.2,0.3,0.3c0.3,0.3,0.5,0.4,0.5,0.6l0,0.1l0,0.1
	c-0.1,0.5-0.4,0.7-0.6,0.8l-0.5,0.2c-0.1,0.1-0.2,0.2-0.5,1c-0.2,0.5-0.3,0.9-0.4,1.2c-0.4,1.9-0.6,3.5-0.6,4.7l0,0.2l-0.1,0
	c0,0-0.1,0.1-0.4,0.4l-0.1,0.1l-0.2-0.1l0,0c-0.1,0-0.2,0-0.5,0l-0.1,0l-0.1,0l-0.1-0.1c-0.1-0.1-0.2-0.2-0.3-0.2l-0.1,0l-0.1,0
	l0-0.1c-0.4-0.9-0.5-1.9-0.2-3l0.1-0.6l0.1,0.4l0.1-0.1c0-0.2,0-0.3,0-0.3l0-0.1l0-0.1l0-0.1l0-0.5l0,0c0-0.2,0.1-0.4,0.3-0.7l0-0.1
	l0.1,0c0-0.1,0-0.2,0-0.2l0-0.1l0-0.1c0,0,0-0.1,0.1-0.3c0.1-0.6,0.3-1,0.5-1.3l0-0.2c0-0.2,0.1-0.4,0.2-0.6l0-0.1l0,0l0-0.1l-0.1,0
	l-0.1-0.1c-0.1-0.2-0.3-0.3-0.6-0.3c-0.1,0-0.2,0-0.3,0l-1-0.1l0,0l0.1,1.4l0.1,0l0.6,0.2c0.1,0.1,0.2,0.2,0.3,0.3
	c0.2,0.2,0.2,0.3,0.3,0.5l0,0.2l-0.2,0c-0.1,0.1-0.1,0.3-0.2,0.5l0,0.1l-0.1,0l-0.1,0l-0.4,0.1l-1,0.2l-0.4,0.1L54.1,70l0.2,1.2
	l0.1,0.1l0.5,0.5l0,0.1c0.2,0.6,0.2,0.7,0.2,0.7l0.1,0.1l0,0.1c-0.1,0.2-0.2,0.5-0.4,0.7l0,0l0,0c-0.1,0.1-0.4,0.2-0.8,0.3
	c-0.4,0.1-0.7,0.2-0.9,0.1c-0.2-0.1-0.4-0.2-0.6-0.3c-0.1-0.1-0.4-0.4-1.1-1.6c-0.6-0.9-0.9-1.5-1-1.8c-0.1-0.4-0.1-1,0-1.7
	c0.4-1.7,0.9-3,1.6-3.7l0.1-0.2l0.1,0.2c0.1,0.1,0.3,0.3,0.6,0.6c0.1-0.1,0.2-0.2,0.3-0.3c0.2-0.2,0.9-0.7,2.1-1.5
	c0.9-0.6,1.4-0.9,1.7-1.1c-0.2,0-0.4,0-0.7,0l0,0l0,0c-0.2,0-0.5,0-0.8,0c-0.4,0-1,0.3-1.8,0.6l0,0l0,0c-0.1,0-0.2,0.1-0.4,0.2
	L53,63.5l-0.1,0c-0.1,0-0.3-0.1-0.6-0.3C52.2,63.1,52.1,63,52,63l-0.1,0l-0.1,0l0,0c-0.1,0-0.1-0.1-0.2-0.2l0,0l0-0.2l0-0.1
	c-0.1-0.1-0.2-0.2-0.3-0.4l-0.1,0l0-0.2c0-0.1-0.1,0.2-0.1,0L51,61.8l0,0c0,0,0-0.1,0-0.3c0-0.2-0.1-0.4,0-0.5
	c0.3-1.2,0.3-0.7,0.4-0.9l0,0l0.2-0.1c0.2-0.1,0.8-1,1.3-1.3l0,0l0,0c0.1,0,0.3,0,0.5-0.1c0.1,0,0.3-0.1,1.5-0.6
	c1.1-0.4,1.4-0.4,1.6-0.4c0.7,0.2,2,0.3,3.9,1.8c0.1,0.1,0.2,0.3,0.3,0.5c0.1,0.4,0.1,0.4,0.1,0.4l0,0l0,0.1l0,0.3l-0.1,0
	c1.2,0.7,1.8,1.7,1.8,2.9l0,0l0,0c-0.1,0.3-0.4,0.5-0.7,0.7c-0.3,0.2-0.7,0.2-1,0.1c0,0-0.1,0-1-0.3c-0.4,0-0.9,0.1-1.5,0.2L58,64.5
	L58,64.7l-0.2,0l0,0.1l-0.2-0.1c-0.2,0.1-0.3,0.1-0.5,0.2C57,64.9,56.9,65,56.8,65L56.8,65z M59.8,46L59.8,46l-0.2,0.3
	c-0.1,0.1-0.1,0.2-0.2,0.3l-0.1,0.1l-0.2,0c-0.2,0.1-0.5,0.1-0.7,0l-0.1,0c0,0-0.1,0-0.2,0.1l0,0l-0.1,0c-0.1,0-0.3,0-0.4,0
	c-0.8-0.2-1.3-0.9-1.6-2.2l0-0.1l0.3-0.6l0.1,0c0.1-0.1,0.3-0.1,0.5,0c0.2,0,0.4,0.1,0.5,0.3c0.1,0,0.3,0.1,0.8,0.2
	c0.7,0.2,1.2,0.5,1.6,0.9l0.1,0.1l-0.1,0.4L59.8,46z M55.3,42.4c0,0.4,0,0.6,0,0.8c0,0.1,0,0.2-0.1,0.3c0.1,0.8,0.2,1.1,0.2,1.2
	c0.1,0.2,0.2,0.4,0.3,0.7l0.2-0.2l0.2,0.2c0.2,0.3,0.3,0.7,0.3,1.1l0,0.1l0,0.1c-0.2,0.2-0.2,0.3-0.2,0.3l0,0
	c0.2,0.2,0.3,0.2,0.4,0.2l2,0.2c0.1,0,0.2,0,0.3,0c0.4,0.1,0.7,0.3,0.9,0.6l0.1,0.2l-0.2,0.2l0.1,0.1l-0.1,0.1
	c-0.3,0.3-0.8,0.5-1.2,0.6l-0.2,0l0.8,0.8l0,0.1c0,0.2-0.1,0.3-0.2,0.5l0,0l0.1,0l0.1-0.1l0.1-0.1l0.3,0.2l0,0l0,0l0.2-0.1l0.1,0
	c0.2,0.1,0.4,0.2,0.5,0.2c0.2,0.1,0.3,0.2,0.4,0.3l0.5-0.1l0,0.3c0,0.1,0,0.3,0.1,0.4l0.1,0.1l-0.2,0.2l0,0.2l0,0.2l-0.1,0.1
	l-0.1,0.1l0,0.1l0,0.3l-0.3-0.1c-0.3-0.1-0.6-0.1-1-0.1c-0.6,0.1-0.6,0-0.7,0c-0.2,0-0.4,0-0.6,0c-0.2,0-0.3,0-0.3,0l0,0
	c-0.1,0.1-0.1,0.3-0.2,0.5c-0.1,0.6-0.2,1.4-0.2,2.5l0,0.1l-0.1,0.1c-0.1,0.1-0.3,0.2-0.5,0.7l-0.1,0.1l-0.5-0.2c0,0-0.1,0-0.3,0.1
	l-0.1,0.1l-0.1-0.1c-0.5-0.5-1-1.3-0.8-2.1l0-0.1l0.1-0.1c0-0.1,0.1-0.3,0.2-0.5c0-0.3,0.1-0.7,0.1-1.2c-0.1,0-0.2,0-0.2,0.1
	c0,0.1-0.1,0.1-0.2,0.2L55,52.9l-0.3-0.1l-0.2,0l0,0l-0.2,0c-0.4,0.2-0.8-0.1-1.6,0c-0.1,0-0.1,0-0.1,0.1l-0.1,0.2L52.3,53l-0.2,0.2
	L52,53.1l-0.1,0c-0.1,0-0.2,0-0.4,0l-0.1,0L51.2,53l-0.1-0.1l-0.3,0l-0.2-0.4l0,0c-0.1,0-0.3,0.1-0.5-0.1c-0.2-0.2-0.3-0.2-0.3-0.2
	l-0.2-0.1l0-0.2c-0.1-0.1-0.4,0-0.7-0.5c-0.3-0.5-0.5-0.8-0.6-1c-0.1-0.2-0.1-0.5-0.3-0.9l0-0.1l0-0.1c0.1-0.3,0.2-0.5,0.4-0.7
	c0.2-0.2,0.6-0.2,1.1-0.1c0.3,0.1,0.5,0.1,0.6,0.2l0.3-0.1l0.1,0.2c0,0,0.1,0.2,0.5,0.3l0,0.2l0,0l0,0l0,0l0,0l0,0l0.8,0.1
	c0.9,0.2,1.6,0.5,2.1,0.8l1.4,0.2l0.3-0.1c-0.1-0.2-0.1-0.5-0.2-0.9l0-0.2l0,0c0,0-0.1-0.1-0.5-0.7c-0.2-0.3-0.4-0.6-0.4-0.8
	c-0.6-0.5-1-0.9-1.2-1.3c-0.3-0.4-0.5-1-0.7-1.7c-0.1-0.2-0.2-0.5-0.4-0.9l0,0l0,0c-0.2-0.9-0.1-1.8-0.3-3l0-0.1l0.2-0.2l-0.2-0.9
	l0.1-0.1l-0.1-0.6l0.5,0l0,0c0.2,0,0.3,0.2,1.4,1.1c0.8,0.7,1.2,1.2,1.4,1.6l0,0.1l0,0.1C55.3,41.8,55.3,42,55.3,42.4 M51,16.6
	c1.4,1.7,5.4,5.1,6.9,5.8c1.5,0.7,2.8,1.1,4.2,1.3c1.4,0.2,4.4-0.3,8.5-1.7c4.1-1.5,6.4-2.7,6.9-2.1c0.5,0.6,0.7,2.2-1.6,5.2
	c-2.3,3-7.4,6.6-12,6.2c-4.6-0.3-7.4-0.8-11.4-4.6c-4-3.9-6.2-8.6-6.7-12C45.4,11.5,49.6,14.9,51,16.6 M96.2,39.3
	c-1.3,0.8-3.6,2.2-3.9,2.4c-0.4,0.3-3,1.4-4.6,1.2c-1.6-0.2-6.2-2.5-7.6-3.5c-1.4-1-6.2-5.1-6.6-6c-0.5-0.9-0.1-1.4,0.1-1.6
	c0.3-0.1,2.6-0.4,3.8-0.1c1.2,0.3,5.2,1.5,6.6,2c1.4,0.4,6.5,1.8,6.5,1.8c1,0.2,4.8,0.9,5.5,1c0-0.4,0-0.9-0.1-1.3
	c0-0.8,0-1.3,0-1.8c0-0.3,0-0.6,0-0.9c-0.2-0.5-0.2-1.1-0.2-1.5l0-0.1l0,0c-0.2-0.2-0.6-0.8-0.5-1.5c-0.2-0.7-0.5-1.4-0.9-2
	c-0.5-0.8-1.2-1.6-2-2.4c-0.8-0.7-1.6-1.3-2.3-1.9l-0.6-0.4c-0.6-0.5-1.1-0.8-1.6-1.2c-0.7-0.6-1.4-1.2-2-1.7c-0.7-0.5-1.4-1-2-1.5
	c-0.7-0.5-1.4-0.8-2.1-1.2c-0.8-0.3-1.5-0.6-2.3-0.8l0,0c-0.3-0.1-0.6-0.2-0.9-0.3l-0.4-0.1c-0.1,0-0.3-0.1-0.4-0.1
	c-0.4-0.1-0.7-0.2-1-0.2c-0.5-0.1-0.9-0.1-1.3-0.2c-0.6-0.1-1.1-0.2-1.8-0.4c-0.3-0.1-0.6-0.2-0.9-0.4l-0.6-0.2
	c-0.5-0.2-0.9-0.4-1.2-0.5c-0.4-0.1-0.7-0.2-1-0.2L69,13.4c-0.4,0-0.8-0.1-1.2-0.1L64.4,13c-0.3,0-0.7-0.1-1-0.1
	c-0.3,0-0.6-0.1-1-0.1c0,0-2.3-0.2-2.9-0.3l0,0c-0.1,0-0.6,0-3.4-0.2l-10.6-0.6c-1.5-0.1-3-0.2-4.4-0.2C39,11.4,37,11.3,36,11.2
	c-0.9-0.1-2.1,0-3.4,0.2c-1.3,0.2-2.7,0.6-3.9,1c-1.3,0.5-2.4,1-3.3,1.6c-1,0.7-1.4,1.2-1.5,1.6c-0.2,0.4-0.5,0.9-0.8,1.4l-0.3,0.5
	c-0.1,0.2-0.3,0.5-0.4,0.7c-0.2,0.3-0.3,0.5-0.6,1.1c-0.2,0.6-1.1,4.1-1.2,5.1c0,0.6,0,0.8,0,1.1v0c0,0.2,0,0.4,0,0.7
	c0,0.7-0.1,1.6-0.2,2.5c-0.1,1-0.4,1.9-0.7,2.8c-0.2,0.5-0.5,1-1,1.8l0,0c-0.4,0.6-1,1.6-1.2,2.1c-0.3,0.9-0.3,1-0.4,1.6
	c0,0.2-0.1,0.5-0.2,0.9c-0.2,1.1-0.5,2.5-0.8,4.5c-0.1,0.4,0,1.1,0.1,1.8c0.2,1,0.3,2.2,0.1,3.4c-0.3,2-0.6,3.5-0.9,4.8
	c0,0.2,0,0.4,0,0.8l0,0.1c0,0.6,0.1,1.4-0.2,2.5c-0.1,0.4,0,1.6,0,2.4l0,0.1c0.1,1.2,0.1,2.4,0,3.5c-0.1,0.7,0,1.3,0,2l0,0.1
	c0.1,0.6,0.1,1.3,0.1,2.2c0,2,0.2,3.9,0.5,5.9c0.1,0.5,0.1,0.8,0.2,1.1l0.1,0.4c0.1,0.8,0.2,1,0.5,1.9l0.2,0.5
	c0.1,0.2,0.1,0.3,0.2,0.5c0.5,1.2,0.8,1.7,1.3,2.4c0.8,0.6,1.3,1.3,1.6,1.7c0.3,0.5,0.4,0.6,0.7,0.7c1.2,0.6,1.9,1.4,2.4,2l0,0
	c0.3,0.3,0.5,0.6,0.7,0.7l2.4,0.7c0.1,0,0.2,0.1,0.4,0.1c0.7,0.3,1.3,0.8,1.9,1.2c0.4,0.3,1,0.7,1.3,0.8c1.1,0.3,2.4,0.6,3.8,0.9
	c1.4,0.2,2.8,0.5,4.5,0.7c1.7,0.2,3.5,0.4,5.1,0.6l2.9-0.3c0.2,0,0.4,0,0.6,0l0.2,0c0.8,0.1,1.6,0.1,2.3,0.2c0.9,0,1.4,0.1,1.7,0.1
	l0.2,0c0.3-0.1,0.7-0.1,1-0.1l3.9,0.4c0.5,0.1,1.1,0.1,1.6,0.2c2.2,0.2,4.3,0.4,6.4,0.6c3,0.2,5.8,0.4,8.1,0.5
	c1.5,0.1,2.7,0,3.7-0.1l0.1,0c0.6,0,1.2-0.1,2-0.1c1.1,0,1.6-0.2,2.2-0.4c0.2-0.1,0.5-0.2,0.8-0.3c0.5-0.2,1.9-0.7,2.5-1.1
	c0.1-0.1,0.3-0.1,0.4-0.2c0.1,0,0.3-0.2,0.6-0.5c0.4-0.4,0.9-0.9,1.7-1.3c0.3-0.2,0.4-0.2,0.7-0.7c0.3-0.4,0.6-0.8,1.1-1.3
	c0.8-0.8,1.4-1.5,2.1-2.8c0.1-0.3,0.2-0.6,0.3-0.9l0.1-0.2c0.4-0.9,0.8-1.9,0.9-2.7c0.1-0.7,0.3-1.4,0.5-2.2c0.2-1,0.5-2.2,0.6-3.3
	c0.2-1.9,0.3-4.1,0.5-6.6c0.1-1.5,0.5-2.9,0.8-4.1c0.3-1.3,0.7-2.6,0.8-3.8c0.2-2.6,0.3-5.5,0.3-8.4c0-1.6,0.3-3.1,0.6-4.5
	c0.3-1.2,0.5-2.4,0.5-3.4C96.2,41,96.2,40.1,96.2,39.3 M98.5,45.8c-0.3,1.3-0.5,2.6-0.6,3.9c-0.1,3-0.2,5.9-0.3,8.5
	c-0.1,1.6-0.5,3-0.9,4.4c-0.3,1.1-0.7,2.4-0.7,3.6c-0.2,2.6-0.3,4.8-0.5,6.7c-0.1,1.3-0.4,2.5-0.7,3.7c-0.2,0.7-0.3,1.4-0.4,2
	c-0.2,1.1-0.6,2.3-1,3.3l-0.1,0.2c-0.1,0.3-0.2,0.6-0.3,0.9l0,0.1l-0.1,0.1c-0.9,1.6-1.7,2.6-2.6,3.5c-0.4,0.4-0.6,0.7-0.8,1
	c-0.4,0.5-0.7,1-1.6,1.5c-0.5,0.3-0.9,0.6-1.2,0.9c-0.4,0.4-0.9,0.8-1.5,1c-0.9,0.5-2.4,1.1-3.1,1.3c-0.2,0.1-0.4,0.1-0.6,0.2
	c-0.6,0.2-1.5,0.6-3.1,0.6c-0.7,0-1.3,0.1-1.9,0.1l-0.1,0c-1.2,0.1-2.4,0.1-4,0.1c-2.4-0.1-5.2-0.3-8.2-0.5
	c-2.1-0.2-4.2-0.3-6.4-0.6c-0.5-0.1-1.1-0.1-1.6-0.2l-3.9-0.4l0,0l-0.2,0.1l-0.2,0c-0.1,0-0.2,0-0.5,0c-0.5,0-1.2,0-1.9-0.1
	c-0.7,0-1.5-0.1-2.4-0.2l-0.2,0l-3.2,0.3l-0.1,0c-1.7-0.2-3.6-0.4-5.3-0.6c-1.7-0.2-3.3-0.4-4.7-0.7c-1.5-0.3-2.9-0.6-4.1-0.9
	c-0.8-0.2-1.5-0.8-2.2-1.3c-0.5-0.4-0.9-0.7-1.4-0.9l-2.6-0.8L23,86.6c-0.7-0.4-1.1-0.8-1.6-1.3l0,0c-0.5-0.5-0.9-1-1.6-1.4
	c-0.9-0.5-1.3-1-1.7-1.6c-0.3-0.4-0.6-0.9-1.2-1.3l-0.1-0.1l-0.1-0.1c-0.9-1.1-1.3-1.9-1.9-3.2c-0.1-0.2-0.1-0.3-0.2-0.5l-0.2-0.6
	c-0.5-1.2-0.6-1.6-0.7-2.6l-0.1-0.4c0-0.3-0.1-0.6-0.2-1.1c-0.4-2.1-0.6-4.2-0.6-6.4c0-0.8-0.1-1.3-0.1-1.9l0-0.1
	c-0.1-0.9-0.2-1.7,0-2.7c0.1-0.8,0.1-1.8,0-2.9l0,0c-0.1-1.3-0.1-2.5,0-3.3c0.2-0.7,0.1-1.2,0.1-1.7l0,0c0-0.4-0.1-1,0.1-1.5
	c0.3-1.3,0.6-2.8,0.9-4.7c0.1-0.8,0-1.6-0.1-2.5c-0.1-0.8-0.3-1.8-0.1-2.7c0.3-2,0.6-3.4,0.8-4.6c0.1-0.3,0.1-0.6,0.1-0.8l0,0
	c0.1-0.7,0.2-0.9,0.5-1.9c0.3-0.8,0.8-1.8,1.5-2.7l0,0c0.4-0.6,0.7-1,0.7-1.3c0.2-0.7,0.4-1.4,0.5-2.2c0.1-0.8,0.1-1.6,0.2-2.2
	c0-0.2,0-0.4,0-0.6l0-0.1c0-0.3,0-0.6,0-1.3c0.1-1.2,1.1-5.3,1.4-6c0.3-0.7,0.4-0.9,0.7-1.3c0.1-0.2,0.3-0.5,0.4-0.8l0.3-0.5
	c0.3-0.5,0.5-0.8,0.6-1.2c0.4-0.9,1.3-1.9,2.5-2.7c1.1-0.7,2.4-1.4,3.9-2c1.4-0.5,2.9-0.9,4.4-1.2c1.5-0.3,2.9-0.4,4-0.3
	c1,0.1,2.9,0.2,5.1,0.3c1.3,0.1,2.8,0.2,4.4,0.2l10.6,0.6c3.2,0.2,3.4,0.2,3.5,0.2l0.1,0c0.6,0.1,2.9,0.3,2.9,0.3
	c0.3,0,0.7,0.1,1,0.1c0.3,0,0.7,0.1,1,0.1l3.4,0.3c0.4,0,0.8,0.1,1.2,0.1l0.9,0.1c0.5,0,1,0.2,1.5,0.3c0.4,0.1,0.9,0.3,1.5,0.6
	l0.5,0.2c0.3,0.1,0.6,0.2,0.9,0.3c0.4,0.2,0.8,0.3,1.1,0.3c0.5,0.1,0.9,0.1,1.5,0.2c0.4,0.1,0.8,0.2,1.2,0.3c0.2,0,0.4,0.1,0.5,0.2
	l0.4,0.1c0.3,0.1,0.6,0.2,0.8,0.2c1,0.2,1.9,0.5,2.8,0.9c0.8,0.4,1.6,0.8,2.5,1.4c0.8,0.5,1.5,1,2.3,1.6c0.6,0.5,1.4,1.1,2.1,1.8
	c0.3,0.3,0.8,0.6,1.3,1l0.6,0.4c0.8,0.6,1.7,1.3,2.6,2.1c1,1,1.9,2,2.5,3c0.6,1,1,2,1.3,3.1l0.1,0.4c0.1,0.2,0.3,0.5,0.4,0.9
	c0.1,0.3,0,0.6,0,0.9l0,0.1l0.1,0.1l0.1,0.6c0.1,0.6,0.1,1.2,0,1.7c0,0.4,0,0.9,0,1.5c0.1,2.1,0.2,4.4,0.3,6.9
	C99,43.1,98.8,44.4,98.5,45.8 M102.1,40.8c-0.1-2.7-0.1-5.3-0.3-7.5c-0.1-1.6-0.2-3-0.4-4.2c-0.3-0.2-0.1-0.5-0.2-0.9
	c-0.1-0.4-0.5-1-0.2-1.4c-0.3-1.1-0.7-2.1-1.2-3c-0.6-1-1.4-2-2.5-3c-0.9-0.9-1.9-1.6-2.8-2.2L94,18.1c-0.7-0.5-1.2-0.9-1.6-1.2
	c-0.8-0.7-1.6-1.4-2.3-1.9c-0.8-0.6-1.6-1.2-2.4-1.7c-0.9-0.6-1.7-1-2.6-1.4c-0.9-0.4-1.9-0.7-2.8-1c-0.3-0.1-0.6-0.2-1-0.3
	l-0.5-0.1c-0.2,0-0.3-0.1-0.5-0.1c-0.4-0.1-0.8-0.2-1.2-0.3c-0.6-0.1-1-0.2-1.5-0.2c-0.5,0-1-0.2-1.6-0.4c-0.3-0.1-0.7-0.3-1-0.4
	l-0.6-0.2c-0.6-0.3-1.1-0.4-1.5-0.6c-0.5-0.2-1-0.3-1.3-0.3l-1-0.1c-0.5,0-1-0.1-1.6-0.1l-3.5-0.3c-0.4,0-0.7-0.1-1.1-0.1
	c-0.4,0-0.7-0.1-1.1-0.1c0,0-2.5-0.2-3.2-0.3l0,0c-0.1,0-0.9-0.1-3.8-0.2L45.2,6c-1.9-0.1-3.9-0.2-5.5-0.3c-2.4-0.1-4.6-0.3-5.7-0.3
	c-1.2-0.1-2.6,0-4.1,0.3c-1.6,0.3-3.1,0.7-4.6,1.2c-1.5,0.6-2.9,1.3-3.9,2c-1.1,0.8-1.8,1.6-2.2,2.4c-0.2,0.4-0.4,0.9-0.8,1.4
	l-0.3,0.5c-0.2,0.3-0.3,0.5-0.5,0.8c-0.2,0.4-0.4,0.7-0.7,1.4c-0.2,0.5-1.3,4.8-1.5,6.1c-0.1,0.7-0.1,1.1,0,1.4v0c0,0.2,0,0.4,0,0.7
	c0,0.7-0.1,1.6-0.2,2.6c-0.1,1-0.3,1.9-0.6,2.7c-0.1,0.4-0.4,0.9-1,1.7l0,0c-0.5,0.8-1.2,1.9-1.5,2.7c-0.3,1.1-0.4,1.3-0.5,1.9
	c0,0.2-0.1,0.5-0.2,0.9c-0.2,1.2-0.5,2.8-0.9,5c-0.1,0.7,0,1.6,0.1,2.5c0.2,1.1,0.3,2.1,0.1,3.3c-0.4,2.2-0.7,3.9-1,5.3
	c-0.1,0.4-0.1,0.9,0,1.3l0,0c0,0.6,0.1,1.4-0.2,2.3c-0.2,0.7-0.1,1.9,0,3.2l0,0.1c0.1,1.2,0.1,2.5,0,3.5c-0.1,1-0.1,1.7,0,2.6l0,0.1
	c0.1,0.7,0.1,1.4,0.1,2.3c0,2.3,0.2,4.5,0.6,6.8c0.1,0.5,0.2,0.9,0.2,1.3l0.1,0.3c0.1,1,0.2,1.3,0.7,2.5l0.2,0.5
	c0.1,0.2,0.2,0.5,0.3,0.7c0.6,1.4,0.9,2.1,1.8,3.1c0.8,0.6,1.2,1.2,1.6,1.7c0.4,0.5,0.7,0.9,1.4,1.3c1,0.5,1.7,1.2,2.3,1.8l0,0
	c0.4,0.5,0.8,0.9,1.3,1.1l2.8,0.9l0.2,0.1c0.6,0.3,1.2,0.7,1.8,1.2c0.7,0.5,1.3,1,1.9,1.2c1.3,0.4,2.7,0.7,4.4,1
	c1.5,0.3,3.2,0.5,5.1,0.7c1.9,0.2,3.9,0.4,5.8,0.6l1.7-0.2l1.7-0.2c0.1,0,0.2,0,0.3,0l0.2,0c0.9,0.1,1.8,0.2,2.6,0.2
	c1,0.1,1.6,0.1,2,0.1c0.3,0,0.4,0,0.5,0c0.2-0.1,0.5-0.1,0.7-0.1l4.3,0.5c0.6,0.1,1.2,0.1,1.8,0.2c2.4,0.2,4.8,0.4,7.1,0.6
	c3.4,0.3,6.4,0.5,9,0.6c1.8,0.1,3.1,0,4.3-0.1l0.1,0c0.6,0,1.4-0.1,2.2-0.1c1.5,0,2.2-0.3,2.9-0.6c0.2-0.1,0.5-0.2,0.8-0.3
	c0.6-0.2,2.3-0.9,3.1-1.3l0.2-0.1c0.4-0.2,0.8-0.5,1.2-0.8c0.4-0.4,0.9-0.8,1.6-1.2c0.6-0.3,0.9-0.7,1.2-1.2
	c0.3-0.4,0.6-0.8,1.1-1.3c1-1,1.8-1.9,2.6-3.5c0.1-0.3,0.2-0.7,0.4-1l0.1-0.3c0.4-1,0.9-2.2,1.1-3.3c0.1-0.7,0.3-1.5,0.5-2.3
	c0.3-1.2,0.6-2.6,0.7-3.9c0.2-2.1,0.4-4.6,0.6-7.4c0.1-1.4,0.5-2.9,0.9-4.2c0.4-1.5,0.8-3,0.9-4.6c0.2-2.9,0.3-6.1,0.4-9.4
	c0-1.6,0.3-3.2,0.7-4.7C101.9,43.5,102.2,42.1,102.1,40.8 M51.9,65.8c-0.1,0.4-0.2,0.8-0.1,1.3l0.6,0.5c0.2-0.1,0.4-0.2,0.5-0.4
	c0.4-0.5,0.6-0.8,0.5-1C52.7,66.1,52.2,66,51.9,65.8 M70.6,47L70.6,47l0,0.2l-0.1,0.2l-0.1,0c-0.7,0.1-0.9,0.2-1,0.2
	c-0.3,0.1-0.6,0.2-0.8,0.4L68.5,48l-0.1,0c-0.2-0.1-0.4-0.1-0.6-0.2c-0.3-0.1-0.6-0.1-0.9-0.2l-0.1,0c-0.3-0.1-0.5-0.2-0.7-0.4
	c0,0.1-0.1,0.2-0.1,0.3c-0.2,0.5-0.2,0.6-0.2,0.7l-0.1,0.7l-0.1,0.5c0,0.1,0,0.3,0.1,0.7l0.1-0.9l0.8-0.4l0.1,0.1
	c0.2,0.2,0.5,0.4,0.9,0.5c0.4,0,0.9,0,1.5,0.2c0.3,0.1,0.5,0.1,0.7,0.2c0.3,0.1,0.5,0.1,0.6,0.1L70.6,47L70.6,47 M57.1,64.4
	c0-0.1,0-0.5,0-0.6c0,0-0.6,0.2-0.6,0.5L57.1,64.4L57.1,64.4z M51.2,69.4c0,0.4,0.2,0.9,0.5,1.5l0.6,0.3c0.1-0.2,0.2-0.4,0.2-0.6
	c0.1-0.7,0.1-1.1,0-1.3C51.9,69.5,51.5,69.5,51.2,69.4"/>
</svg>
